<svg width="120" height="42" fill="none" xmlns="http://www.w3.org/2000/svg"><path d="M0 2.114c3.118 0 4.438 2.19 5.84 4.542l11.476 19.84c.541.988 1.074 2.185 1.06 3.305-.044 2.917-3.802 3.985-6.051 4.084a10.31 10.31 0 01-4.737-.971l-.915 1.193c.533 2.288 2.635 5.068 5.524 5.045 5.018-.035 7.652-4.669 9.667-8.426L25.6 23.75 14.765 5.014c-1.002-1.675.643-2.895 2.392-2.918l.387-1.54H.4L0 2.114z" fill="url(#paint0_linear_144_4521)"/><path d="M63.279 9.705h1.392c.733 0 1.022-.809 1.022-1.348 0-.54-.306-1.22-1.048-1.22h-1.369v2.568h.003zm-1.656 1.394V3.023h1.656V5.76h1.158c1.942 0 2.973 1.196 2.956 2.57-.018 1.375-.979 2.77-2.936 2.77h-2.851.017zm52.281 4.076a3.488 3.488 0 004.189 0l-.665-.987a2.358 2.358 0 01-2.858 0l-.666.987zm5.356 9.54v-8.04h-1.624l-3.277 5.47v-5.47h-1.61v8.04h1.61l3.271-5.456v5.456h1.63zm-57.701-5.762v1h-2.473v-.875c0-.717.614-1.126 1.326-1.126.438 0 1.158.292 1.158 1.012l-.011-.011zm1.844 4.825l-.698-1.263a3.46 3.46 0 01-2.217.875c-.794 0-1.407-.44-1.407-1.307v-.752h4.145V19.37c0-2.042-1.282-2.824-2.82-2.824-1.765 0-2.999.913-2.999 2.917v2.682c0 1.794 1.158 2.695 2.95 2.695 1.309.003 2.114-.426 3.046-1.062zm-6.56 13.197h1.392c.733 0 1.022-.583 1.022-1.129a.962.962 0 00-.64-.969.944.944 0 00-.408-.046h-1.37v2.141l.004.003zm0-5.251v1.736h1.192a.763.763 0 00.625-.227.777.777 0 00.218-.631.839.839 0 00-.493-.806.82.82 0 00-.324-.07h-1.218v-.002zm-1.657 6.643v-8.035h2.85c1.956 0 2.57 1.202 2.541 2.121.006.334-.083.662-.255.947a1.756 1.756 0 01-.718.663 1.985 1.985 0 011.352 1.917c0 1.167-.85 2.393-2.81 2.393h-2.962l.003-.006zm49.548-8.035v1.377h2.018l-.003 6.681h1.729v-6.68h2.015v-1.378h-5.759zM92.16 1.542a3.488 3.488 0 004.19 0l-.666-.986a2.356 2.356 0 01-2.857 0l-.666.986zm5.357 9.54v-8.04h-1.624l-3.29 5.481V3.041h-1.609v8.041h1.624l3.272-5.456v5.456h1.627zM43.314 8.588c0 .7-.694 1.126-1.326 1.126a2.839 2.839 0 01-1.447-.44V4.931c.438-.364.984-.57 1.552-.584a1.173 1.173 0 01.857.324 1.192 1.192 0 01.37.843v3.073h-.006zm1.674-.175V5.637c0-1.75-.927-2.743-2.644-2.743-.648 0-1.763.263-2.217.636a1.244 1.244 0 00-.629-.641l-1.021.95c.388.263.4.777.4 1.004v8.84h1.655V10.86a4.49 4.49 0 001.682.345c1.555.002 2.774-.98 2.774-2.793zm5.28.819a1.754 1.754 0 01-1.665.563 1.021 1.021 0 01-.557-.35 1.035 1.035 0 01-.23-.621 1.175 1.175 0 01.336-.9 1.158 1.158 0 01.892-.34h1.224v1.651-.003zm9.661 1.85V3.024h-5.466v4.989c0 1.015-.628 1.86-1.505 1.884-.408 0-1.031-.262-1.031-.875V5.62c0-1.666-.868-2.725-2.739-2.725a3.91 3.91 0 00-2.785 1.094l.869 1.083a2.795 2.795 0 011.737-.75c.55 0 1.245.245 1.245.995v.858h-1.358c-1.943 0-2.756 1.242-2.756 2.55 0 1.257.683 2.482 2.643 2.482a2.884 2.884 0 001.847-.773 3.017 3.017 0 002.35.826c1.886-.059 3.096-1.083 3.047-3.3V4.4h2.278v6.682h1.624zm21.924.005l-2.967-4.253 2.773-3.793h-1.887l-2.076 3.154h-1.02V3.023H75.05v8.064h1.595l.014-3.515h1.01l2.29 3.515h1.894zm-7.859-.904l-.68-1.213c-.941.668-1.506.875-1.978.875-.662 0-1.326-.344-1.326-1.045V5.658c0-.717.66-1.225 1.422-1.225a2.45 2.45 0 011.636.817l.868-1.1a3.241 3.241 0 00-2.69-1.24c-1.635 0-2.894 1.012-2.894 2.757V8.69c0 1.712 1.314 2.517 2.932 2.517 1-.006 1.965-.37 2.722-1.03m15.309.905V3.04H87.69L84.4 8.523V3.041h-1.606v8.04h1.625l3.272-5.455v5.456h1.624zM38.433.556H36.58l-1.433 4.793c-.026.088-.06.184-.081.292-.02.108-.04.175-.05.242-.008.067-.017.102-.017.105 0 .003 0-.035-.017-.1-.017-.063-.03-.142-.05-.235a1.522 1.522 0 00-.08-.275L32.735.556h-1.887l3.387 7.5-.214.543c-.272.601-.985 1.263-2.264 1.319l.202 1.301c1.876.041 3.113-.8 3.593-2.206l2.88-8.457zm72.625 16.119h-1.624v8.04h1.624v-8.04zm-6.648 6.681h1.392c.733 0 1.022-.808 1.022-1.348s-.307-1.22-1.048-1.22h-1.369v2.568h.003zm-1.656 1.394v-8.075h1.656v2.736h1.158c1.942 0 2.973 1.197 2.956 2.57-.018 1.375-.979 2.77-2.936 2.77h-2.852.018zm-64.196-2.526a1.145 1.145 0 01-.363.828 1.127 1.127 0 01-.847.298 1.044 1.044 0 01-.964-.44v-4.356a1.36 1.36 0 011.06-.496 1.07 1.07 0 01.806.338 1.086 1.086 0 01.294.83v2.998h.014zm-3.816-3.737v4.423a1.053 1.053 0 01-.964.44 1.119 1.119 0 01-.84-.303 1.14 1.14 0 01-.358-.823V19.15a1.092 1.092 0 01.663-1.085c.14-.058.289-.086.44-.082a1.347 1.347 0 011.06.505zm5.501 3.565v-2.777c0-1.75-.799-2.743-2.516-2.743-.462 0-.917.12-1.32.347v-1.517h-1.665v1.517a2.696 2.696 0 00-1.32-.347c-1.717 0-2.516.995-2.516 2.743v2.774c0 1.812 1.092 2.795 2.646 2.795.42-.012.83-.131 1.19-.347v2.813h1.656v-2.813c.362.215.771.333 1.19.344 1.555.003 2.655-.98 2.655-2.792v.003zm5.567-3.099v1h-2.472v-.875c0-.717.614-1.126 1.326-1.126.438 0 1.158.292 1.158 1.012l-.011-.011zm1.862 4.837l-.697-1.263a3.46 3.46 0 01-2.218.875c-.793 0-1.407-.44-1.407-1.307v-.764h4.131V19.37c0-2.042-1.282-2.824-2.823-2.824-1.766 0-2.999.913-2.999 2.917v2.682c0 1.794 1.158 2.695 2.95 2.695 1.318.003 2.11-.426 3.052-1.062l.011.012zm3.23-.431c.408-.45.663-1.307.643-2.183v-3.115h2.278v5.298h-2.92zm4.545 0v-6.681h-5.48v4.443c0 1.013-.579 2.215-1.468 2.238h-.15v3.329h1.578v-1.95h4.808v1.953h1.621v-3.332h-.909zm45.627 1.356v-8.04h-1.627v3.142h-3.286v-3.142h-1.61v8.04h1.61v-3.521h3.286v3.521h1.627zm-31.825-2.477c0 .7-.695 1.126-1.326 1.126a2.839 2.839 0 01-1.448-.44v-4.33c.438-.364.985-.57 1.552-.584a1.173 1.173 0 01.857.324 1.19 1.19 0 01.37.843v3.061h-.005zm1.673-.175v-2.775c0-1.75-.926-2.742-2.643-2.742-.648 0-1.763.262-2.218.636a1.244 1.244 0 00-.63-.63l-1.023.95c.388.263.403.777.403 1.005v8.816h1.656v-2.81a4.493 4.493 0 001.682.345c1.554 0 2.782-.98 2.782-2.792l-.009-.003zm5.281.823c-.611.797-2.43.899-2.453-.408a1.177 1.177 0 01.337-.904 1.157 1.157 0 01.897-.339h1.225v1.651h-.006zm9.672 1.85v-8.061h-5.477v4.992c0 1.015-.629 1.861-1.506 1.884-.408 0-1.03-.262-1.03-.875v-3.401c0-1.666-.869-2.726-2.74-2.726a3.912 3.912 0 00-2.784 1.095l.868 1.082a2.794 2.794 0 011.737-.75c.55 0 1.245.245 1.245.995v.858H74.83c-1.942 0-2.756 1.243-2.756 2.55 0 1.257.683 2.482 2.644 2.482a2.884 2.884 0 001.847-.773 3.02 3.02 0 002.35.826c1.885-.061 3.095-1.085 3.046-3.3v-3.553h2.287v6.68h1.621l.006-.005zm3.338-1.38h1.404c.732 0 1.022-.808 1.022-1.348s-.307-1.22-1.048-1.22h-1.37v2.568h-.008zm-1.656 1.394v-8.075h1.656v2.736h1.158c1.945 0 2.973 1.197 2.958 2.57-.014 1.375-.978 2.77-2.935 2.77h-2.852.014zm-49.81 5.582h-1.803l-1.633 6.25a4.035 4.035 0 00-.18-1.144l-1.39-5.109-1.835.018s2.14 6.812 2.64 8.005c-.245 1.054-.816 1.75-2.026 1.87l.156 1.223c1.836 0 2.878-.998 3.257-2.226l2.814-8.887zm7.559 8.041v-8.041h-1.624v3.14h-3.29v-3.14h-1.606v8.04h1.607v-3.52h3.289v3.52h1.624zm8.199 0v-8.041h-1.624l-3.289 5.482v-5.482h-1.607v8.04h1.625l3.272-5.455v5.456h1.624zm37.978-8.041v1.377h2.015v6.681h1.726v-6.68h2.018v-1.378h-5.759zm-1.204 8.041v-8.041h-1.625l-3.288 5.482v-5.482h-1.607v8.04h1.624l3.271-5.455v5.456h1.625zm-16.341-2.494c0 .7-.695 1.126-1.326 1.126a2.84 2.84 0 01-1.447-.44v-4.333c.438-.364.984-.57 1.552-.584a1.173 1.173 0 01.857.324 1.19 1.19 0 01.37.843v3.075l-.006-.011zm1.674-.175V32.94c0-1.75-.927-2.743-2.644-2.743-.648 0-1.763.263-2.217.636a1.24 1.24 0 00-.631-.633l-1.022.951c.388.263.4.776.4 1.004v8.808h1.658v-2.81a4.49 4.49 0 001.682.345c1.566-.015 2.774-.984 2.774-2.795zM82.7 37.45l-.681-1.214c-.941.669-1.506.876-1.975.876-.662 0-1.325-.345-1.325-1.045V32.94c0-.718.663-1.226 1.424-1.226a2.453 2.453 0 011.636.817l.868-1.1a3.24 3.24 0 00-2.69-1.24c-1.635 0-2.895 1.013-2.895 2.757v3.02c0 1.712 1.315 2.518 2.936 2.518 1-.006 1.965-.371 2.722-1.03m19.516-4.866v1.001h-2.473v-.875c0-.718.614-1.126 1.326-1.126.437 0 1.158.292 1.158 1.012l-.011-.011zm1.861 4.838l-.712-1.278a3.46 3.46 0 01-2.218.875c-.793 0-1.407-.44-1.407-1.307v-.735h4.146v-1.96c0-2.043-1.282-2.825-2.823-2.825-1.766 0-2.999.913-2.999 2.918v2.678c0 1.794 1.158 2.696 2.95 2.696 1.317-.006 2.111-.438 3.052-1.074l.011.012zM66.299 32.59v1.001h-2.473v-.875c0-.718.614-1.126 1.327-1.126.437 0 1.157.292 1.157 1.012l-.011-.011zm1.861 4.838l-.726-1.278a3.46 3.46 0 01-2.218.875c-.793 0-1.407-.44-1.407-1.307v-.735h4.146v-1.96c0-2.043-1.283-2.825-2.82-2.825-1.766 0-3 .913-3 2.918v2.678c0 1.794 1.159 2.696 2.95 2.696 1.315-.006 2.109-.438 3.05-1.074l.025.012z" fill="#222"/><defs><linearGradient id="paint0_linear_144_4521" x1="16.613" y1=".556" x2="15.761" y2="42.297" gradientUnits="userSpaceOnUse"><stop stop-color="#FF2D7F"/><stop offset=".48" stop-color="#FB3727"/><stop offset="1" stop-color="#FEEA0F"/></linearGradient></defs></svg>