<?xml version="1.0" encoding="utf-8"?><svg viewBox="0 0 36 18" xmlns="http://www.w3.org/2000/svg" xmlns:xlink="http://www.w3.org/1999/xlink"><style>:root>svg{display:none}:root>svg:target{display:block}</style><svg fill="none" viewBox="0 0 16 16" id="icon-add" xmlns="http://www.w3.org/2000/svg"><path d="M0 8h16m-8 8V0" stroke="currentColor" stroke-width="2"/></svg><svg fill="none" viewBox="0 0 36 18" id="icon-arrow-back" xmlns="http://www.w3.org/2000/svg"><path d="M6.894 7.2l4.644-4.662L9 0 0 9l9 9 2.538-2.538L6.894 10.8H36V7.2H6.894z" fill="currentColor"/></svg><svg fill="none" viewBox="0 0 14 16" id="icon-arrow-next" xmlns="http://www.w3.org/2000/svg"><path d="M1 8h12m0 0l-6 6m6-6L7 2" stroke="#fff" stroke-width="2" stroke-linecap="square" stroke-linejoin="round"/></svg><svg fill="none" viewBox="0 0 14 16" id="icon-arrow-prev" xmlns="http://www.w3.org/2000/svg"><path d="M13 8H1m0 0l6 6M1 8l6-6" stroke="#fff" stroke-width="2" stroke-linecap="square" stroke-linejoin="round"/></svg><svg fill="none" viewBox="0 0 18 10" id="icon-caret" xmlns="http://www.w3.org/2000/svg"><path d="M17.485 8.535L9 .05.515 8.535 1.929 9.95 9 2.878l7.071 7.072 1.414-1.415z" fill="#460163"/></svg><svg fill="none" viewBox="0 0 16 16" id="icon-close" xmlns="http://www.w3.org/2000/svg"><path d="M2 2l11.5 12M14 2L2 14" stroke="currentColor" stroke-width="3" stroke-linecap="round" stroke-linejoin="round"/></svg></svg>